<?xml version="1.0" standalone="no"?>
<!DOCTYPE svg PUBLIC "-//W3C//DTD SVG 20010904//EN"
 "http://www.w3.org/TR/2001/REC-SVG-20010904/DTD/svg10.dtd">
<svg version="1.0" xmlns="http://www.w3.org/2000/svg"
 width="722.000000pt" height="192.000000pt" viewBox="0 0 722.000000 192.000000"
 preserveAspectRatio="xMidYMid meet">

<g transform="translate(0.000000,192.000000) scale(0.100000,-0.100000)"
fill="#000000" stroke="none">
<path d="M1140 1687 l-25 -13 -3 -468 -2 -468 32 6 c18 3 42 8 53 10 91 20
210 99 277 182 29 35 54 64 56 64 8 0 122 -71 122 -76 0 -3 -20 -31 -44 -62
-114 -148 -255 -235 -426 -266 l-65 -11 -3 -168 -2 -167 26 -11 c17 -6 141 -9
331 -7 257 3 305 5 313 18 11 18 13 1399 2 1416 -20 30 -55 34 -334 34 -208 0
-290 -4 -308 -13z"/>
<path d="M341 1354 c-21 -26 -21 -37 -21 -479 0 -442 0 -453 21 -479 l20 -26
313 0 c373 0 346 -10 346 126 l0 90 -72 12 c-132 23 -257 87 -353 180 -49 48
-115 131 -115 146 0 6 122 78 125 74 1 -2 12 -20 24 -40 63 -106 251 -216 369
-218 l22 0 0 303 c0 282 -1 305 -18 320 -16 15 -54 17 -330 17 l-311 0 -20
-26z"/>
<path d="M1990 1194 c0 -4 17 -37 37 -73 51 -92 65 -117 103 -186 155 -283
205 -367 223 -380 14 -10 46 -15 92 -15 65 0 74 2 97 28 14 15 47 68 73 117
27 50 57 104 66 122 10 18 35 63 55 100 20 37 49 91 64 118 77 140 90 164 90
169 0 4 -35 6 -78 6 l-77 0 -35 -67 c-155 -299 -247 -462 -260 -463 -9 0 -29
27 -48 63 -18 34 -43 80 -55 102 -20 37 -80 146 -163 300 l-33 60 -75 3 c-42
2 -76 0 -76 -4z"/>
<path d="M3097 1178 c-13 -13 -58 -88 -102 -168 -43 -80 -87 -159 -96 -177
-10 -18 -35 -63 -55 -100 -20 -37 -50 -91 -65 -119 -16 -28 -29 -57 -29 -63 0
-7 26 -11 75 -11 l75 0 32 65 32 65 231 0 230 0 35 -65 35 -65 73 0 c44 0 72
4 72 11 0 5 -12 31 -26 57 -15 26 -51 92 -82 147 -30 55 -66 120 -79 145 -14
25 -41 74 -61 110 -57 107 -74 134 -100 163 -24 25 -32 27 -99 27 -63 0 -77
-3 -96 -22z m168 -215 c33 -60 67 -123 77 -142 11 -18 17 -35 15 -37 -2 -3
-77 -3 -166 -2 l-161 3 21 40 c12 22 40 76 64 120 23 44 48 90 54 103 6 12 18
22 25 22 7 0 39 -48 71 -107z"/>
<path d="M3692 938 c3 -283 5 -294 60 -345 50 -47 92 -53 365 -53 l254 0 -3
63 -3 62 -242 5 c-236 5 -243 6 -265 28 -22 22 -23 28 -26 262 l-4 240 -70 0
-70 0 4 -262z"/>
<path d="M4511 1170 c-46 -34 -61 -73 -61 -166 0 -98 32 -155 100 -174 18 -5
131 -10 250 -10 246 -2 230 5 230 -86 0 -73 0 -73 -306 -76 l-269 -3 0 -55 0
-55 310 0 c309 0 310 0 343 23 48 35 64 82 60 180 -2 60 -7 85 -18 92 -8 5
-11 10 -6 10 6 0 -3 13 -18 29 -40 42 -96 51 -319 51 -137 0 -196 3 -205 12
-7 7 -12 33 -12 58 0 80 -2 79 296 82 l259 3 3 34 c2 19 1 44 -3 58 l-5 23
-294 0 -294 -1 -41 -29z"/>
<path d="M5415 1183 c-114 -46 -130 -84 -130 -318 0 -161 1 -173 25 -220 18
-37 37 -57 70 -75 44 -25 48 -25 323 -28 l277 -4 0 61 0 61 -237 0 c-156 0
-248 4 -269 12 -36 13 -52 40 -61 104 l-6 44 282 0 281 0 0 55 0 55 -281 0
-282 0 7 41 c17 104 32 109 331 109 l235 0 0 60 0 60 -262 -1 c-218 0 -270 -3
-303 -16z"/>
<path d="M6230 1181 c-110 -43 -135 -99 -135 -311 0 -163 15 -228 63 -272 54
-50 76 -53 372 -53 l275 0 3 57 3 57 -253 3 c-187 2 -260 7 -279 17 -37 18
-49 68 -49 195 0 107 13 164 41 182 8 5 131 11 274 14 l260 5 3 63 3 62 -268
0 c-232 -1 -274 -3 -313 -19z"/>
</g>
</svg>
