<?xml version="1.0" standalone="no"?>
<!DOCTYPE svg PUBLIC "-//W3C//DTD SVG 20010904//EN"
 "http://www.w3.org/TR/2001/REC-SVG-20010904/DTD/svg10.dtd">
<svg version="1.0" xmlns="http://www.w3.org/2000/svg"
 width="131.000000pt" height="131.000000pt" viewBox="0 0 131.000000 131.000000"
 preserveAspectRatio="xMidYMid meet">

<g transform="translate(0.000000,131.000000) scale(0.100000,-0.100000)"
fill="#000000" stroke="none">
<path d="M560 1303 c-42 -7 -132 -34 -128 -38 2 -2 26 3 53 11 28 8 95 19 150
23 97 8 98 8 25 8 -41 0 -86 -2 -100 -4z"/>
<path d="M794 1284 c110 -27 203 -79 285 -163 42 -42 91 -103 109 -136 19 -33
31 -51 27 -40 -25 82 -148 218 -250 280 -62 37 -171 76 -209 74 -11 0 6 -7 38
-15z"/>
<path d="M344 1224 c-75 -45 -170 -139 -214 -211 -39 -63 -80 -175 -79 -213 0
-14 7 2 15 34 27 110 79 203 163 285 42 42 103 90 136 108 33 18 55 33 49 33
-5 0 -37 -16 -70 -36z"/>
<path d="M562 1069 c-57 -11 -152 -63 -193 -105 l-33 -34 38 -39 39 -40 38 20
c34 17 39 24 39 54 0 29 5 37 32 51 48 25 144 29 211 10 57 -17 57 -17 57 -56
0 -36 4 -41 39 -59 l38 -20 39 40 39 41 -46 41 c-96 88 -212 121 -337 96z"/>
<path d="M607 924 c-4 -4 -7 -48 -7 -99 l0 -91 -35 -17 c-31 -15 -35 -21 -35
-57 l0 -40 110 0 110 0 0 40 c0 36 -4 42 -35 57 l-34 16 -3 96 -3 96 -30 3
c-17 2 -34 0 -38 -4z"/>
<path d="M1226 905 c73 -246 23 -467 -145 -635 -240 -240 -613 -241 -850 -1
-119 119 -167 229 -181 410 l-7 96 -2 -76 c-5 -259 159 -489 417 -587 58 -22
83 -26 192 -26 97 -1 137 3 180 18 253 86 419 293 437 546 6 81 -10 197 -33
245 -8 17 -12 21 -8 10z"/>
<path d="M400 560 c0 -5 5 -10 10 -10 6 0 10 -18 10 -41 0 -52 24 -48 28 4 2
20 7 37 13 37 5 0 9 5 9 10 0 6 -16 10 -35 10 -19 0 -35 -4 -35 -10z"/>
<path d="M790 563 c0 -5 7 -16 15 -27 12 -16 12 -22 -2 -42 -17 -27 -3 -33 18
-8 11 14 13 14 21 0 5 -9 16 -16 24 -16 12 0 12 3 -1 24 -15 23 -15 27 0 50
18 28 6 36 -15 11 -12 -14 -15 -14 -30 0 -18 16 -30 19 -30 8z"/>
<path d="M492 528 c-18 -18 -14 -46 7 -58 28 -14 46 -4 49 27 3 38 -30 57 -56
31z m38 -38 c0 -5 -4 -10 -10 -10 -5 0 -10 5 -10 10 0 6 5 10 10 10 6 0 10 -4
10 -10z"/>
<path d="M566 533 c-10 -10 -7 -63 3 -63 5 0 11 10 13 22 5 32 28 35 28 4 0
-14 5 -26 10 -26 6 0 10 11 10 25 0 14 4 25 10 25 5 0 12 -11 16 -25 3 -14 10
-25 15 -25 5 0 9 -7 9 -15 0 -8 5 -15 10 -15 6 0 10 4 10 8 0 4 14 13 31 19
23 9 30 17 27 34 -5 32 -33 47 -59 31 -12 -8 -25 -10 -32 -4 -14 10 -92 14
-101 5z m170 -24 c10 -17 -13 -36 -27 -22 -12 12 -4 33 11 33 5 0 12 -5 16
-11z"/>
<path d="M260 393 c0 -30 3 -35 11 -23 8 11 12 12 16 3 9 -24 19 -13 18 20 0
25 -5 33 -22 35 -20 3 -23 -1 -23 -35z m30 17 c0 -5 -5 -10 -11 -10 -5 0 -7 5
-4 10 3 6 8 10 11 10 2 0 4 -4 4 -10z"/>
<path d="M398 409 c-16 -12 -29 -16 -33 -9 -3 5 -11 10 -16 10 -6 0 -7 -4 -4
-10 4 -6 -1 -7 -10 -3 -13 4 -16 1 -13 -13 2 -12 13 -20 28 -21 23 -2 23 -2 5
6 -19 9 -19 10 3 10 12 1 22 -3 22 -8 0 -6 24 -10 53 -9 36 0 46 3 32 9 -18 7
-18 8 -2 8 21 1 18 22 -3 29 -7 3 -10 0 -6 -7 4 -7 1 -9 -8 -5 -8 3 -16 12
-18 19 -2 10 -9 9 -30 -6z m12 -29 c0 -5 -4 -10 -10 -10 -5 0 -10 5 -10 10 0
6 5 10 10 10 6 0 10 -4 10 -10z"/>
<path d="M496 414 c-9 -24 -7 -54 4 -54 6 0 10 6 11 13 0 6 2 22 3 35 3 25 -9
30 -18 6z"/>
<path d="M768 424 c-12 -11 -10 -64 2 -64 6 0 10 8 10 18 1 16 1 16 14 0 20
-27 26 -22 26 20 -1 33 -2 35 -14 20 -16 -22 -24 -23 -28 -2 -2 9 -6 12 -10 8z"/>
<path d="M530 385 c0 -14 5 -25 10 -25 6 0 10 11 10 25 0 14 -4 25 -10 25 -5
0 -10 -11 -10 -25z"/>
<path d="M561 383 c1 -17 3 -21 6 -10 5 21 23 23 23 2 0 -10 10 -15 30 -15 20
0 30 5 30 15 0 8 5 15 10 15 6 0 10 -7 10 -16 0 -8 4 -12 10 -9 5 3 18 1 27
-4 13 -8 14 -10 4 -11 -11 0 -12 -3 -4 -11 18 -18 33 -1 33 37 0 27 -4 34 -19
34 -11 0 -23 -5 -26 -10 -5 -8 -11 -8 -20 0 -13 11 -42 10 -62 -3 -6 -4 -14
-3 -18 3 -13 21 -35 10 -34 -17z m169 -3 c0 -5 -4 -10 -9 -10 -6 0 -13 5 -16
10 -3 6 1 10 9 10 9 0 16 -4 16 -10z"/>
<path d="M832 385 c0 -16 2 -22 5 -12 2 9 2 23 0 30 -3 6 -5 -1 -5 -18z"/>
<path d="M850 383 c0 -26 1 -26 15 -7 19 25 19 34 0 34 -10 0 -15 -10 -15 -27z"/>
<path d="M900 383 c0 -14 6 -23 15 -23 8 0 15 7 15 15 0 8 5 15 10 15 6 0 10
-7 10 -16 0 -9 6 -14 13 -11 6 2 21 1 32 -4 19 -7 19 -8 1 -8 -15 -1 -17 -4
-8 -13 16 -16 42 7 42 39 0 28 -21 39 -49 24 -13 -7 -22 -8 -26 -1 -3 5 -17 9
-30 8 -19 -2 -25 -8 -25 -25z m110 -3 c0 -5 -4 -10 -10 -10 -5 0 -10 5 -10 10
0 6 5 10 10 10 6 0 10 -4 10 -10z"/>
</g>
</svg>
